<?xml version="1.0" encoding="utf-8"?>
<!-- Generator: Adobe Illustrator 19.2.1, SVG Export Plug-In . SVG Version: 6.00 Build 0)  -->
<svg version="1.1" id="Layer_1" xmlns="http://www.w3.org/2000/svg" xmlns:xlink="http://www.w3.org/1999/xlink" x="0px" y="0px"
	 viewBox="0 0 1575.6 202.7" style="enable-background:new 0 0 1575.6 202.7;" xml:space="preserve">
<g>
	<path d="M738.4,137.6c5.8-42.9,11.5-85.8,17.3-128.7c5.9,0,11.2,0,16.9,0c5.1,43,10.1,85.8,15.1,128.5c0.3,0,0.6,0.1,1,0.1
		c4.4-42.8,8.9-85.6,13.3-128.6c6.4,0,12.3,0,18.9,0c-8.3,62.4-16.6,124.5-24.8,186.7c-6.5,0-12.4,0-18.8,0
		c-4.9-39.3-9.7-78.4-14.5-117.5c-0.3,0-0.6-0.1-0.9-0.1c-5.4,39.1-10.8,78.2-16.2,117.5c-6.4,0-12.5,0-19.1,0
		c-7-62-14.1-124-21.1-186.5c6.8,0,13.2,0,20.1,0c3.9,43,7.8,85.8,11.7,128.6C737.6,137.6,738,137.6,738.4,137.6z"/>
	<path d="M1209.6,195.8c-7.1-62.6-14.1-124.6-21.2-187.1c6.2,0,11.8-0.2,17.4,0.2c1.1,0.1,2.8,2.1,2.9,3.4
		c2.2,22.5,4.1,45.1,6.2,67.7c1.7,19.2,3.5,38.4,6.3,57.8c0.5-3.2,1.1-6.5,1.5-9.8c4.6-34.3,9.2-68.6,13.8-103
		c0.6-4.1,1.2-8.2,1.6-12.4c0.3-2.7,1.2-4.2,4.3-4c4.1,0.3,8.3,0.1,13.1,0.1c5,43.2,9.9,86,14.9,128.9c0.4,0,0.8,0,1.2,0
		c4.4-42.8,8.9-85.7,13.3-128.7c6.4,0,12.4,0,18.9,0c-8.3,62.4-16.6,124.5-24.8,186.7c-6.4,0-12.4,0-18.8,0
		c-4.9-39.3-9.7-78.4-14.5-117.5c-0.3,0-0.5-0.1-0.8-0.1c-0.9,6.2-1.9,12.5-2.8,18.7c-4.4,31.7-8.7,63.3-13,95
		c-0.4,3.1-1.4,4.3-4.6,4.1C1219.9,195.6,1215,195.8,1209.6,195.8z"/>
	<path d="M541.8,8.6c5.5,0,10.5-0.3,15.4,0.2c1.4,0.1,3.3,2.4,3.8,4c7.1,23.2,14.1,46.5,21.1,69.8c4.4,14.7,8.6,29.4,12.9,44.1
		c0.4,1.4,0.9,2.7,2.2,3.9c0-40.4,0-80.8,0-121.5c6.4,0,12.3,0,18.6,0c0,61.9,0,123.9,0,186.7c-4.1,0-8.4,0.3-12.5-0.2
		c-1.2-0.2-2.6-2.6-3.2-4.2c-8.7-25.5-17.4-51-25.9-76.6c-4.4-13.4-8.4-26.9-13.3-40.3c0,40.2,0,80.4,0,121c-6.5,0-12.6,0-19.1,0
		C541.8,133.4,541.8,71.3,541.8,8.6z"/>
	<path d="M949.4,8.6c5.5,0,10.7-0.3,15.8,0.2c1.2,0.1,2.8,2.4,3.3,4c8.2,26.7,16.3,53.5,24.4,80.2c3.4,11.2,6.5,22.4,9.8,33.6
		c0.4,1.3,0.9,2.6,2.3,3.8c0-40.4,0-80.7,0-121.4c6.4,0,12.3,0,18.7,0c0,62,0,124,0,186.8c-4.1,0-8.4,0.4-12.6-0.2
		c-1.4-0.2-3-2.7-3.6-4.4c-9.6-28.2-19-56.5-28.4-84.7c-3.1-9.5-5.9-19.1-8.9-28.6c-0.4-1.2-0.9-2.3-2-3.4c0,40.2,0,80.4,0,121
		c-6.4,0-12.4,0-18.8,0C949.4,133.3,949.4,71.4,949.4,8.6z"/>
	<path d="M136.8,130.4c0-40.3,0-80.6,0-121.4c6.3,0,12.4,0,18.8,0c0,61.9,0,124,0,186.7c-4.2,0-8.5,0.3-12.7-0.2
		c-1.2-0.1-2.7-2.1-3.2-3.6c-12.4-37.4-24.6-74.9-36.9-112.4c-0.6-1.8-1.3-3.6-2.6-5.3c0,40.2,0,80.5,0,121.1c-6.4,0-12.4,0-18.8,0
		c0-62.1,0-124,0-186.8c5.4,0,10.8-0.2,16.2,0.2c1,0.1,2.3,2.1,2.7,3.5c11.5,38.4,22.9,76.9,34.3,115.3c0.3,1,0.7,2,1.1,3.1
		C136,130.6,136.4,130.5,136.8,130.4z"/>
	<path d="M1459.9,104.5c13.5,6.3,16.2,17.3,16.1,29.8c-0.2,13.7-0.1,27.3,0,41c0,3.3-0.4,6.8,3.8,8.3c0.6,0.2,1.1,1.6,1.2,2.4
		c0.1,3.6,0.1,7.2,0.1,12c-5.7-0.7-10.9-0.6-15.7-2c-7.6-2.1-9.2-8.7-9.3-15.5c-0.2-16.3-0.1-32.7-0.2-49c0-2.8-0.2-5.7-0.8-8.4
		c-1.4-6.3-5.2-9.4-11.6-9.6c-5-0.2-10,0-15.7,0c0,27.4,0,54.6,0,82c-7.2,0-13.7,0-20.5,0c0-62.2,0-124.3,0-187
		c5.3,0,10.4-0.1,15.5,0c9.2,0.1,18.4-0.4,27.5,0.6c15.2,1.8,24.1,11.8,24.7,27.3c0.5,14.1,0.5,28.3,0.4,42.5
		C1475.3,90.1,1472.7,99.9,1459.9,104.5z M1428,27.7c0,23,0,45.3,0,68.1c4.6,0,8.7,0.1,12.9,0c8.4-0.2,13.5-4.1,13.8-12.6
		c0.6-15.1,0.5-30.3,0-45.5c-0.2-6.8-4.4-9.9-11.3-10.1C1438.5,27.6,1433.5,27.7,1428,27.7z"/>
	<path d="M252.9,8.9c14.3,0,28.2-0.7,41.9,0.2c14.4,1,23.9,9.8,25,24.1c1.2,16.6,0.9,33.3,0.7,49.9c-0.1,9.6-4.4,17.3-14.9,21.4
		c14.1,6.7,16,18.5,15.8,31.4c-0.2,12.8-0.1,25.7,0,38.5c0,3.5-0.6,7.6,4,9.3c0.5,0.2,1,1.3,1,2.1c0.1,3.8,0,7.5,0,12.3
		c-5.6-0.6-10.6-0.7-15.4-1.8c-5-1.2-7.7-5.2-8.5-10.1c-0.6-3.9-0.9-7.9-0.9-11.9c-0.1-14,0-28-0.1-42c0-3-0.2-6-0.8-8.9
		c-1.1-5.1-4.3-8.9-9.7-9.4c-5.8-0.5-11.6-0.1-18-0.1c0,27.3,0,54.4,0,81.7c-7,0-13.4,0-20.2,0C252.9,133.4,252.9,71.3,252.9,8.9z
		 M273.4,27.7c0,22.9,0,45.3,0,68.1c3.7,0,7,0,10.4,0c12.2,0,16.8-4.5,17-16.8c0.1-12.3,0.1-24.7,0-37c0-2.1-0.3-4.3-0.8-6.4
		c-1.1-4.8-4.3-7.6-9.1-7.8C285.2,27.6,279.5,27.7,273.4,27.7z"/>
	<path d="M1387,102.6c0,20.6,0.5,41.3-0.2,61.9c-0.7,19.7-15.3,33.4-34.8,34.1c-18.6,0.6-33.6-12.6-36.2-31.7
		c-0.4-3.3-0.7-6.6-0.7-10c0-36.6,0-73.3,0-109.9c0-9.5,1.5-18.7,7.1-26.5c9.1-12.6,21.8-16.6,36.5-13.9
		c13.4,2.5,22.4,10.7,26.2,23.8c1.6,5.7,2.3,11.8,2.3,17.7c0.3,18.1,0.1,36.3,0.1,54.4C1387.3,102.6,1387.2,102.6,1387,102.6z
		 M1335.7,101.7c0,0,0.1,0,0.1,0c0,21-0.2,42,0.1,63c0.1,7.4,4.2,12.3,10.6,14c7.1,1.9,14.5-0.1,17.7-5.8c1.7-3,2.9-6.9,2.9-10.3
		c0.2-40.1,0.1-80.3,0.1-120.4c0-0.8-0.1-1.7-0.1-2.5c-0.8-9.6-8.5-15.7-18-14.3c-8.7,1.2-13.3,6.8-13.4,16.9
		C1335.6,62,1335.7,81.9,1335.7,101.7z"/>
	<path d="M1516.2,103.1c0.9-2.6,1.8-5.2,2.6-7.8c8.9-27.4,17.8-54.8,26.5-82.2c1.1-3.5,2.7-4.8,6.3-4.5c4.8,0.3,9.6,0.1,15.3,0.1
		c-1.1,3.1-2.1,5.7-3,8.3c-8.2,23-16.5,46-24.6,69.1c-0.8,2.4-0.5,5.6,0.2,8.1c8.7,32.1,17.6,64.2,26.5,96.3
		c0.4,1.6,0.8,3.2,1.3,5.1c-7.1,0-13.9,0-21.1,0c-6.8-27-13.7-54-20.5-80.7c-14.7,25.2-9.9,53.1-10.7,80.6c-6.7,0-13.1,0-19.8,0
		c0-62.2,0-124.2,0-186.5c6.5,0,12.8,0,19.8,0c0,31.4,0,62.7,0,94C1515.4,102.9,1515.8,103,1516.2,103.1z"/>
	<path d="M391.8,120.6c-5.2,0-9.8,0-14.6,0c0-6.1,0-11.6,0-17.5c11.2,0,22.3,0,33.8,0c0,30.8,0,61.5,0,93.4c-3.3-0.9-6.9-0.9-9-2.6
		c-2.2-1.8-2.9-5.4-4.5-8.6c-8.5,13-20.4,15.6-33.9,12.1c-13.2-3.4-22-15.4-23.4-31c-0.3-3.5-0.3-7-0.3-10.5c0-36.7,0-73.3,0-110
		c0-11.8,2.7-22.6,11.7-30.8c11.1-10,24.2-11.6,37.8-6.6c12.3,4.6,18.4,14.9,19.5,27.3c1,10.9,0.2,21.9,0.2,33.3c-5.3,0-11,0-17.4,0
		c-0.1-1.5-0.3-3.2-0.4-5c-0.1-7.8,0.1-15.7-0.1-23.5c-0.3-9.8-6.6-15.8-15.8-15.6c-9.1,0.2-15.4,6.5-15.4,16.1
		c-0.1,40.8-0.1,81.6,0,122.5c0,10.7,6.1,16.8,15.7,16.8c9.5,0,15.9-6.3,16.1-16.6C392,149.7,391.8,135.6,391.8,120.6z"/>
	<path d="M829.3,140.7c7.2,0,13.2,0,19.8,0c0,5.9-0.2,11.7,0.1,17.4c0.2,4.4,0.6,9,2,13.2c2.3,7.2,7.9,10.5,15.4,10.1
		c7.2-0.4,12-4.3,13.7-11.7c2.3-9.9,1.1-19.8-2.9-28.9c-4-9.2-8.8-18.3-14.6-26.5c-11-15.5-22.4-30.7-28.3-49.1
		c-4.9-15.4-5.4-30.7,3.5-44.8c8-12.7,20.5-16.4,34.8-14.1c13,2.1,22.4,9.8,25.1,22.6c2.4,11.4,2.2,23.3,3.3,35.4
		c-7.4,0-13.4,0-20,0c0-6.3,0.2-12.5-0.1-18.6c-0.2-4.3-0.6-8.7-1.9-12.7c-2-6.5-7.2-9.6-13.7-9.3c-7,0.3-11.9,3.9-13.4,10.6
		c-2.7,12.2-0.2,24.1,5.7,34.7c5.7,10.3,12.5,20,19.4,29.6c11,15.3,20.9,31,23.4,50.1c1.8,13.9,1,27.5-9.2,38.5
		c-9.9,10.8-22.5,13.2-36.1,9.7c-13.4-3.5-22.3-12.1-24.1-26.2C829.6,161.2,829.8,151.2,829.3,140.7z"/>
	<path d="M1092.8,107.9c-9.7,0-18.6,0-28,0c0,23.1,0,45.8,0,69.2c13,0,25.8,0,38.8,0c0,6.4,0,12.1,0,18.3c-19.6,0-39.1,0-59,0
		c0-62.1,0-124.2,0-186.5c19.7,0,39.1,0,58.9,0c0,6.1,0,11.9,0,18.4c-12.9,0-25.6,0-38.8,0c0,21,0,41.4,0,62.5
		c7.8,0,15.4,0.2,23-0.1c3.8-0.1,5.5,0.9,5.1,5C1092.6,98.8,1092.8,103,1092.8,107.9z"/>
	<path d="M196.8,177.1c13,0,25.8,0,38.8,0c0,6.3,0,12.1,0,18.2c-19.5,0-39,0-58.9,0c0-62,0-124,0-186.4c19.6,0,39,0,58.8,0
		c0,5.8,0,11.7,0,18.3c-12.8,0-25.6,0-38.8,0c0,21.1,0,41.5,0,62.5c8.1,0,15.9,0.2,23.7-0.1c3.5-0.1,4.7,1.1,4.5,4.6
		c-0.2,4.3-0.1,8.6-0.1,13.5c-9.5,0-18.6,0-28,0C196.8,131.1,196.8,153.8,196.8,177.1z"/>
	<path d="M26.6,89.8c8.1,0,15.9,0.1,23.6-0.1c3.4-0.1,4.8,0.9,4.6,4.5c-0.3,4.3-0.1,8.6-0.1,13.5c-9.5,0-18.5,0-28,0
		c-0.2,2-0.4,3.4-0.4,4.8c0,19.8,0.1,39.7-0.1,59.5c-0.1,4.4,1.6,5.2,5.5,5.2c11.1-0.2,22.3-0.1,33.8-0.1c0,6.3,0,12.2,0,18.3
		c-19.7,0-39.3,0-59.2,0c0-62.2,0-124.3,0-186.6c19.9,0,39.4,0,59.2,0c0,6.1,0,11.8,0,18.4c-12.9,0-25.8,0-39,0
		C26.6,48.4,26.6,68.8,26.6,89.8z"/>
	<path d="M685,89.8c0,6.4,0,12,0,18.1c-7.9,0-15.5,0.2-23.1-0.1c-3.8-0.1-5.3,0.7-5.2,4.9c0.2,19.8,0.2,39.7,0,59.5
		c0,4.1,1.5,5,5.2,5c11.3-0.2,22.6-0.1,34.2-0.1c0,6.3,0,12.1,0,18.3c-19.4,0-39,0-59,0c0-62,0-124,0-186.4c19.5,0,39,0,59,0
		c0,6,0,11.9,0,18.4c-9.9,0-19.5,0-29.1,0c-10.2,0-10.2,0-10.2,10.3c0,15.7,0.1,31.3-0.1,47c-0.1,4.3,1.4,5.4,5.4,5.2
		C669.5,89.6,677,89.8,685,89.8z"/>
	<path d="M419.2,8.8c6.9,0,13.2,0,19.9,0c6.6,28.3,13.1,56.5,19.7,84.8c0.3,0,0.6-0.1,0.9-0.1c5.4-23.3,10.7-46.5,16.1-69.8
		c1.1-4.8,1-11.8,4.1-13.9c3.7-2.5,10.2-1,15.5-1.1c0.8,0,1.6,0.2,3,0.3c-1.9,7.2-3.7,14.3-5.6,21.3c-7.9,29.4-15.8,58.8-23.6,88.2
		c-0.7,2.5-1,5.2-1,7.9c-0.1,21.2,0,42.3,0,63.5c0,1.8,0,3.6,0,5.6c-6.9,0-13.3,0-20.2,0c0-2,0-3.8,0-5.5c0-15.2-0.5-30.3,0.1-45.5
		c0.7-15.9-2.1-31-6.2-46.2C434,68.7,426.8,39,419.2,8.8z"/>
	<path d="M1138.2,195.4c0-56,0-111.6,0-167.6c-8.2,0-16,0-24.3,0c0-6.4,0-12.4,0-18.8c22.7,0,45.4,0,68.4,0c0,6.1,0,12,0,18.5
		c-7.7,0-15.3,0-23.5,0c0,56.2,0,111.9,0,167.9C1151.7,195.4,1145.3,195.4,1138.2,195.4z"/>
</g>
</svg>
