<?xml version="1.0" encoding="utf-8"?>
<!-- Generator: Adobe Illustrator 19.2.1, SVG Export Plug-In . SVG Version: 6.00 Build 0)  -->
<svg version="1.1" id="Layer_1" xmlns="http://www.w3.org/2000/svg" xmlns:xlink="http://www.w3.org/1999/xlink" x="0px" y="0px"
	 viewBox="0 0 1744.4 214.5" style="enable-background:new 0 0 1744.4 214.5;" xml:space="preserve">
<style type="text/css">
	.st0{fill:#FFFFFF;}
</style>
<g>
	<path d="M1568.6,144.7c6-44.1,12-88.2,18-132.4c5.9,0,11.3,0,17,0c5.2,44.5,10.4,88.7,15.6,132.9c0.3,0,0.7,0,1,0.1
		c4.5-44.3,9.1-88.6,13.7-133c6.5,0,12.6,0,19.3,0c-8.4,64-16.9,127.6-25.3,191.4c-6.5,0-12.6,0-19.3,0c-5-40.3-9.9-80.7-14.9-121
		c-0.3,0-0.5,0-0.8,0c-5.5,40.3-11,80.7-16.6,121.1c-6.6,0-12.7,0-19.6,0c-7.2-63.6-14.3-127.2-21.5-191.3c6.8,0,13.3,0,20.4,0
		c4,44,8,88.2,11.9,132.3C1567.8,144.7,1568.2,144.7,1568.6,144.7z"/>
	<path d="M1386.9,79.3c0,41.3,0,82.5,0,124.2c-6.5,0-12.7,0-19.3,0c0-63.6,0-127.3,0-191.5c5.5,0,10.8-0.2,16.1,0.2
		c1.3,0.1,2.9,2.3,3.4,3.8c11.6,38.7,23.1,77.4,34.7,116.2c0.5,1.7,1,3.5,2.4,5.1c0-41.6,0-83.1,0-125c6.8,0,12.9,0,19.4,0
		c0,63.7,0,127.4,0,191.6c-4.1,0-8.3,0.3-12.4-0.2c-1.4-0.2-3.2-2.1-3.7-3.5c-12.9-38.8-25.6-77.7-38.4-116.6c-0.5-1.5-1-3-1.5-4.5
		C1387.3,79.2,1387.1,79.3,1386.9,79.3z"/>
	<path d="M954.1,12.3c6.8,0,12.9,0,19.4,0c0,63.7,0,127.4,0,191.6c-4.2,0-8.3,0.3-12.4-0.2c-1.4-0.2-3.2-2.1-3.7-3.6
		c-13-39.1-25.8-78.3-38.6-117.5c-0.4-1.1-0.7-2.2-1.7-3.2c0,41.3,0,82.5,0,124.1c-6.7,0-13,0-19.6,0c0-63.6,0-127.3,0-191.5
		c5.6,0,10.9-0.2,16.1,0.2c1.2,0.1,2.9,2.3,3.4,3.9c11.6,38.7,23.1,77.4,34.7,116.2c0.5,1.7,1,3.4,2.4,5.1
		C954.1,95.7,954.1,54.1,954.1,12.3z"/>
	<path d="M29.7,79.5c0,41.3,0,82.6,0,124.1c-6.5,0-12.7,0-19.3,0c0-63.7,0-127.2,0-191.5c5.7,0,11.3-0.2,16.9,0.2
		c1,0.1,2.2,2.2,2.6,3.5c11.7,39,23.3,78.1,34.9,117.1c0.5,1.5,0.9,3.1,2.3,4.5c0-41.5,0-83,0-124.9c6.7,0,12.9,0,19.5,0
		c0,63.6,0,127.2,0,191.5c-4.3,0-8.8,0.2-13.2-0.2c-1.1-0.1-2.4-1.9-2.9-3.3c-12.9-39-25.7-78-38.5-117c-0.5-1.4-0.9-2.8-1.3-4.2
		C30.4,79.3,30.1,79.4,29.7,79.5z"/>
	<path d="M253.8,110.5c13.1,5.8,16.3,16.4,16.3,28.9c-0.1,14.2-0.1,28.3,0,42.5c0,3.7-0.7,7.9,4.2,9.6c0.5,0.2,0.8,1.4,0.9,2.2
		c0.1,3.8,0,7.6,0,12.4c-5.7-0.6-10.8-0.7-15.7-1.9c-6.3-1.6-9.4-6.8-9.6-15.3c-0.2-16.3-0.1-32.7-0.2-49c0-2,0.1-4-0.1-6
		c-0.8-10.2-5.1-14.3-15.3-14.4c-4.3,0-8.6,0-13.5,0c0,28.1,0,55.8,0,83.9c-7.3,0-14,0-21,0c0-63.7,0-127.3,0-191
		c0.9-0.2,1.7-0.4,2.5-0.4c13.7,0.1,27.4-0.4,41,0.7c14.8,1.1,24.5,10.9,25.4,25.6c0.9,16.3,0.7,32.6,0.5,48.9
		C269.1,97.8,265.1,106.4,253.8,110.5z M220.9,101.3c4,0,7.5,0,11,0c12.2,0,16.9-4.6,16.9-16.8c0.1-12.8,0.1-25.6,0-38.5
		c0-2.5,0.1-5.4-1.1-7.3c-1.8-2.7-4.6-6-7.3-6.5c-6.3-1-12.8-0.3-19.4-0.3C220.9,55.1,220.9,77.9,220.9,101.3z"/>
	<path d="M1073,13c15.6,0,31.1-1,46.5,0.3c12.7,1.1,21.6,11.7,22.2,25.2c0.8,16.9,0.6,34,0.3,50.9c-0.2,9.8-4.9,17.2-15.2,21
		c14.4,6.3,16.5,18.3,16.3,31.6c-0.2,13.5-0.1,27,0,40.5c0,3.4-0.4,7.2,3.9,8.9c0.7,0.3,1.1,1.9,1.2,3c0.1,3.5,0.1,7,0.1,10.3
		c-15,4.5-25.1-2.5-25.3-17.5c-0.3-16.3-0.1-32.7-0.2-49c0-3.1-0.2-6.4-1-9.4c-1.2-4.9-4.3-8.5-9.6-8.9c-5.9-0.4-11.9-0.1-18.4-0.1
		c0,28,0,55.7,0,83.7c-7.1,0-13.7,0-20.7,0C1073,139.9,1073,76.3,1073,13z M1093.9,101.3c4,0,7.5,0,10.9,0c12.2,0,16.9-4.6,17-16.8
		c0.1-12.8,0.1-25.6,0-38.5c0-2.5-0.4-5-1-7.4c-1.1-3.9-3.9-6.5-7.9-6.7c-6.2-0.3-12.5-0.1-19-0.1
		C1093.9,55.1,1093.9,77.8,1093.9,101.3z"/>
	<path d="M387.5,98.8c11.1,0,21.4,0,32.4,0c0-28.8,0-57.5,0-86.5c7.1,0,13.5,0,20.3,0c0,63.7,0,127.4,0,191.3c-6.6,0-13,0-20,0
		c0-28.2,0-56.5,0-85c-11,0-21.4,0-32.5,0c0,28.4,0,56.6,0,85c-7.2,0-13.8,0-20.7,0c0-63.7,0-127.3,0-191.2c6.7,0,13.4,0,20.6,0
		C387.5,41.1,387.5,69.7,387.5,98.8z"/>
	<path d="M105.8,107.9c0-19.2,0-38.3,0-57.5c0-12.1,2.8-23.2,12.1-31.7c11.5-10.5,25.1-12,39.1-6.6c13.5,5.2,20.6,16.3,21.7,30.4
		c1.1,13.6,0.8,27.3,0.8,40.9c0.1,26.8,0.1,53.6,0,80.4c0,10.3-1.5,20.3-8,28.8c-9.6,12.6-22.6,16-37.3,13.1
		c-13.8-2.7-22.6-11.7-26.3-25.1c-1.4-5.2-2-10.8-2-16.3C105.7,145.5,105.8,126.7,105.8,107.9z M126.7,107.9
		C126.7,107.9,126.6,107.9,126.7,107.9c-0.1,14.1-0.1,28.3-0.1,42.4c0,7-0.2,14,0.2,21c0.5,11.5,9.6,17.9,20.8,14.9
		c7.3-2,11.3-7.4,11.4-16.1c0.1-41.3,0-82.6,0-123.8c0-1,0-2-0.1-3c-0.8-6.7-5-11.7-11-13.4c-11.4-3.2-20.8,3.3-21,15.2
		C126.5,66,126.7,87,126.7,107.9z"/>
	<path d="M1213.9,126.7c-5.3,0-9.9,0-14.8,0c0-6,0-11.6,0-17.6c11.3,0,22.7,0,34.6,0c0,31.3,0,62.8,0,94.1
		c-9.8,4.1-10.3-4.9-13.6-9.9c-12.7,14.5-28.4,17.6-43.1,8.5c-8.9-5.6-13.4-14.2-15.1-24.2c-0.7-3.8-1-7.6-1-11.4
		c-0.1-38.7,0-77.3,0-116c0-11.7,2.7-22.6,11.5-30.9c11-10.4,24.1-12.2,38.1-7.7c13.2,4.3,19.7,14.9,21.1,27.8
		c1.2,11.5,0.3,23.2,0.3,35c-5.7,0-11.6,0-18.2,0c0-7.7,0-15.2,0-22.6c0-2.5,0.1-5-0.1-7.5c-0.9-9.8-7.1-15.5-16.3-15.2
		c-9.2,0.3-15.4,6.5-15.4,16.2c-0.2,34.8-0.1,69.7-0.1,104.5c0,7.3-0.1,14.7,0.1,22c0.3,10.4,6.1,16.2,15.7,16.2
		c9.8,0.1,16.3-6,16.4-16.2C1214.1,157,1213.9,142.2,1213.9,126.7z"/>
	<path d="M551.8,203.7c-6.8,0-12.9,0-19.6,0c9.7-63.9,19.3-127.5,29-191.4c7.2,0,14.1,0,21.7,0c9.3,63.6,18.5,127.3,27.8,191.3
		c-7,0-13.8,0-21.2,0c-0.8-6.2-1.7-12.6-2.5-19c-0.8-6.1-1.6-12.2-2.1-18.4c-0.3-3-1.5-4-4.4-3.9c-6.2,0.2-12.3,0.3-18.5-0.1
		c-4.1-0.3-4.6,2.1-5,5.1C555.3,179.4,553.6,191.4,551.8,203.7z M581.7,142.8c-3.2-27.3-6.4-54.4-9.6-81.4c-0.3,0-0.6,0.1-0.9,0.1
		c-3.5,27-7.1,54-10.6,81.3C567.8,142.8,574.5,142.8,581.7,142.8z"/>
	<path d="M1735,69.8c-7.7,0-13.7,0-20.3,0c0-6.1,0.2-12-0.1-17.9c-0.3-4.8-0.6-9.7-1.9-14.3c-1.9-6.7-7.1-9.8-14-9.6
		c-7.2,0.2-12.4,3.8-13.8,10.7c-2.7,12.6-0.3,24.7,5.8,35.7c5.6,10.2,12.3,19.7,19.1,29.2c9.5,13.3,18.5,26.9,22.8,43
		c3.1,11.6,3.7,23.4,0.2,35c-4.8,15.9-19.2,26.1-35.4,25.2c-18.5-1-31.4-11.1-34.2-28.4c-1.6-10.1-1.2-20.5-1.7-31
		c7.2,0,13.5,0,20.5,0c0,6.2-0.2,12.3,0.1,18.4c0.2,4.4,0.6,9,2,13.2c2.4,7.4,8.3,10.7,16.4,10c7.1-0.5,12-4.6,13.4-11.9
		c2.9-14.8-1-28.5-8.2-41.2c-4.7-8.2-10.4-15.9-15.9-23.6c-11.4-15.9-22-32.4-25.2-52.1c-2.5-15.3-0.8-30.1,10.8-41.8
		c14.3-14.4,48.9-13.7,56.2,14.9C1734.7,44.8,1734,57.2,1735,69.8z"/>
	<path d="M618.4,147.2c7.4,0,13.6,0,20.6,0c0,5.9-0.2,11.6,0.1,17.4c0.2,4.6,0.5,9.4,1.8,13.8c2.3,7.7,7.9,11.1,16,10.7
		c7.6-0.4,12.6-4.4,14.1-12.4c2.8-14.8-1.2-28.5-8.4-41.2c-4.6-8.1-10.2-15.6-15.7-23.1c-11.5-16.1-22.2-32.6-25.3-52.6
		c-2.4-15.1-0.7-29.7,10.8-41.4C646.7,4,681.2,4.6,688.7,33.2c3,11.5,2.3,24,3.4,36.4c-7.4,0-13.5,0-20.4,0c0-5.6,0.2-11.4-0.1-17.1
		c-0.2-4.6-0.4-9.4-1.6-13.8c-1.9-7.4-7-10.9-14.3-10.7c-7.6,0.2-12.7,4-14.2,11.5c-2.3,12.2,0,24.1,5.9,34.8
		c5.4,9.9,11.9,19.2,18.5,28.4c9.8,13.6,19,27.4,23.4,43.8c3.1,11.8,3.8,23.7,0.2,35.5c-4.8,15.6-19.1,25.6-35.2,24.9
		c-18.4-0.9-31.4-11-34.3-28.3C618.5,168.4,619,158,618.4,147.2z"/>
	<path d="M840.5,95.3c9.6,0,18.8,0,28.5,0c0,6.4,0,12.3,0,18.6c-9.5,0-18.8,0-28.4,0c0,23.7,0,46.9,0,70.6c13.2,0,26.3,0,39.7,0
		c0,6.6,0,12.7,0,19c-20.1,0-40.2,0-60.5,0c0-63.8,0-127.3,0-191.2c20.1,0,40,0,60.4,0c0,6,0,12,0,18.9c-13.1,0-26.3,0-39.7,0
		C840.5,53,840.5,73.8,840.5,95.3z"/>
	<path d="M1044,95.2c0,6.5,0,12.3,0,18.7c-9.4,0-18.8,0-28.5,0c0,23.8,0,47,0,70.8c13.4,0,26.5,0,39.8,0c0,6.6,0,12.7,0,19
		c-20.2,0-40.1,0-60.4,0c0-63.7,0-127.4,0-191.3c20.1,0,40,0,60.3,0c0,6.2,0,12.2,0,18.9c-13.2,0-26.2,0-39.7,0c0,21.5,0,42.4,0,64
		C1025,95.2,1034.4,95.2,1044,95.2z"/>
	<path d="M1525.4,12.4c0,6.3,0,12.2,0,18.9c-13.3,0-26.5,0-39.9,0c0,21.7,0,42.6,0,64c9.6,0,18.9,0,28.5,0c0,6.4,0,12.3,0,18.6
		c-9.5,0-18.8,0-28.4,0c0,23.7,0,46.9,0,70.6c13.2,0,26.3,0,39.7,0c0,6.6,0,12.7,0,19c-20.1,0-40.2,0-60.5,0c0-63.8,0-127.4,0-191.2
		C1485,12.4,1504.9,12.4,1525.4,12.4z"/>
	<path d="M463,12.3c20.1,0,40,0,60.3,0c0,6.2,0,12.2,0,18.9c-13.2,0-26.3,0-39.7,0c0,21.5,0,42.4,0,64c9.4,0,18.8,0,28.4,0
		c0,6.5,0,12.3,0,18.7c-9.4,0-18.8,0-28.5,0c0,23.8,0,47,0,70.8c13.4,0,26.5,0,39.8,0c0,6.6,0,12.7,0,19c-20.2,0-40.1,0-60.4,0
		C463,139.9,463,76.2,463,12.3z"/>
	<path d="M1283.6,98.9c6.1-26.8,12.4-53.5,18.2-80.3c1.1-5.3,3.1-7.3,8.5-6.6c4.1,0.5,8.2,0.1,12.8,0.1c-0.6,2.5-0.9,4.5-1.4,6.4
		c-9.4,35.2-18.9,70.4-28.2,105.6c-0.8,3-1.2,6.2-1.2,9.3c-0.1,21.3-0.1,42.7-0.1,64c0,2,0,4,0,6.3c-6.9,0-13.5,0-20.6,0
		c0-1.9,0-3.7,0-5.5c0-20.5-0.2-41,0.1-61.5c0.2-12.6-4.4-24.2-7.3-36c-6.8-28-14.2-55.8-21.3-83.7c-0.4-1.4-0.6-2.9-0.9-4.6
		c6.8,0,13.4,0,20.5,0c6.6,28.9,13.3,57.9,19.9,86.8C1282.9,99,1283.3,98.9,1283.6,98.9z"/>
	<path d="M727.1,31.7c-9,0-17.1,0-25.5,0c0-6.7,0-12.9,0-19.4c23.5,0,46.7,0,70.2,0c0,6.4,0,12.5,0,19.3c-7.9,0-15.8,0-24.3,0
		c0,57.7,0,114.7,0,172.1c-7,0-13.5,0-20.4,0C727.1,146.6,727.1,89.5,727.1,31.7z"/>
	<path d="M307.8,203.7c0-57.5,0-114.4,0-171.8c-8.4,0-16.5,0-25.1,0c0-6.6,0-12.9,0-19.5c23.2,0,46.4,0,70,0c0,6.3,0,12.5,0,19.3
		c-8,0-15.9,0-24.3,0c0,57.7,0,114.8,0,171.9C321.4,203.7,314.9,203.7,307.8,203.7z"/>
	<path class="st0" d="M1093.9,101.3c0-23.5,0-46.2,0-69.4c6.5,0,12.8-0.2,19,0.1c4,0.2,6.8,2.8,7.9,6.7c0.7,2.4,1,4.9,1,7.4
		c0.1,12.8,0.1,25.6,0,38.5c-0.1,12.2-4.8,16.8-17,16.8C1101.3,101.4,1097.9,101.3,1093.9,101.3z"/>
	<path class="st0" d="M581.7,142.8c-7.1,0-13.9,0-21.2,0c3.6-27.3,7.1-54.3,10.6-81.3c0.3,0,0.6-0.1,0.9-0.1
		C575.2,88.4,578.4,115.4,581.7,142.8z"/>
</g>
</svg>
