<?xml version="1.0" encoding="utf-8"?>
<!-- Generator: Adobe Illustrator 19.2.1, SVG Export Plug-In . SVG Version: 6.00 Build 0)  -->
<svg version="1.1" id="Layer_1" xmlns="http://www.w3.org/2000/svg" xmlns:xlink="http://www.w3.org/1999/xlink" x="0px" y="0px"
	 viewBox="0 0 1782 218" style="enable-background:new 0 0 1782 218;" xml:space="preserve">
<style type="text/css">
	.st0{fill:#FFFFFF;}
</style>
<g>
	<path d="M1589.7,204.8c-7.2-63.7-14.3-127.4-21.5-191.3c6.8,0,13.3,0,20.4,0c4,44.1,8,88.2,11.9,132.4c0.4,0,0.7,0,1.1,0
		c1.7-12.5,3.5-25.1,5.2-37.6c4.1-30.4,8.2-60.7,12.2-91.1c0.4-2.7,1.2-4.2,4.3-4c4.3,0.3,8.6,0.1,13.3,0.1
		c5.2,44.7,10.4,88.9,15.6,133.2c0.3,0,0.6,0.1,1,0.1c4.5-44.3,9.1-88.5,13.7-133c6.4,0,12.5,0,19.3,0
		c-8.4,63.9-16.8,127.5-25.3,191.4c-6.3,0-12.5,0-19.3,0c-4.9-40.3-9.9-80.7-14.9-121.1c-0.3,0-0.5-0.1-0.8-0.1
		c-5.5,40.3-11,80.6-16.6,121.1C1602.7,204.8,1596.4,204.8,1589.7,204.8z"/>
	<path d="M499.7,13.3c5.8,0,11.1,0,17,0c5.2,44.3,10.4,88.6,15.6,132.8c0.3,0,0.7,0.1,1,0.1c4.5-44.1,9.1-88.3,13.6-132.7
		c6.3,0,12.4,0,19.3,0c-8.4,63.7-16.8,127.3-25.2,191.2c-6.4,0-12.6,0-19.4,0c-4.9-40.2-9.9-80.5-14.8-120.8c-0.3,0-0.5-0.1-0.8-0.1
		c-5.5,40.2-11,80.4-16.6,120.9c-6.5,0-12.8,0-19.6,0c-7.2-63.5-14.3-127.2-21.5-191.2c6.9,0,13.4,0,20.4,0
		c4,44.2,8,88.3,11.9,132.4c0.4,0,0.7,0,1.1-0.1C487.7,101.7,493.7,57.6,499.7,13.3z"/>
	<path d="M1477.6,204.7c-0.6,0.1-0.9,0.3-1.2,0.3c-13.4,0.6-13.5,0.6-17.6-12.1c-12-36.7-24-73.3-36-110c-0.3-0.9-0.7-1.7-1.8-2.5
		c0,41.4,0,82.7,0,124.3c-6.6,0-12.7,0-19.2,0c0-63.7,0-127.3,0-191.6c5.6,0,11-0.2,16.4,0.2c1.1,0.1,2.5,2.2,3,3.7
		c11.7,39,23.3,78.1,34.9,117.1c0.4,1.4,0.8,2.8,1.3,4.2c0.3,0,0.6,0,0.9,0c0-41.5,0-83.1,0-124.9c6.8,0,12.9,0,19.4,0
		C1477.6,77,1477.6,140.7,1477.6,204.7z"/>
	<path d="M1006.6,204.7c-0.6,0.1-0.9,0.3-1.2,0.3c-13.4,0.6-13.5,0.6-17.6-12c-12-36.7-24-73.3-36-110c-0.3-0.9-0.7-1.7-1.8-2.5
		c0,41.4,0,82.7,0,124.3c-6.6,0-12.7,0-19.2,0c0-63.7,0-127.3,0-191.6c5.5,0,11-0.2,16.4,0.2c1.1,0.1,2.6,2.2,3,3.7
		c11.7,39,23.3,78.1,34.9,117.1c0.4,1.5,1,3,2.4,4.4c0-41.6,0-83.1,0-125c6.6,0,12.7,0,19.2,0C1006.6,77,1006.6,140.7,1006.6,204.7z
		"/>
	<path d="M1159.9,111.6c13.7,6,16.4,17.3,16.3,30.3c-0.2,13.8-0.1,27.7,0,41.5c0,3.6-0.6,7.5,4.1,9.2c0.6,0.2,1,1.7,1,2.6
		c0.1,3.6,0,7.3,0,12.2c-5.9-0.8-11.4-0.9-16.5-2.4c-7.3-2.2-8.7-8.7-8.8-15.3c-0.2-16.3-0.1-32.7-0.2-49c0-2,0-4-0.1-6
		c-0.9-9.9-5.2-13.9-15.1-14c-4.3,0-8.7,0-13.7,0c0,28.1,0,56,0,84.1c-7.3,0-13.9,0-20.8,0c0-63.7,0-127.3,0-191.1
		c0.9-0.2,1.8-0.5,2.8-0.5c11.5,0,23-0.2,34.5,0c13,0.2,24.1,4.2,29.2,17.5c1.7,4.4,2.6,9.4,2.7,14.1c0.3,15.1,0.3,30.3-0.1,45.5
		C1174.9,100.1,1170.3,107.7,1159.9,111.6z M1127.1,33c0,23.4,0,46.1,0,69.5c3.7,0,7.2,0,10.6,0c12.6,0,17.2-4.5,17.3-17
		c0.1-12.7,0.1-25.3,0-38c0-2.5-0.3-5-0.9-7.4c-1.2-4.3-4.2-6.9-8.6-7.1C1139.4,32.8,1133.4,33,1127.1,33z"/>
	<path d="M433.4,204.7c-6.9,0-13.3,0-20.2,0c0-28.3,0-56.4,0-84.9c-10.8,0-21.2,0-32.3,0c0,28.2,0,56.4,0,84.9c-7.2,0-13.8,0-20.8,0
		c0-63.6,0-127.3,0-191.3c6.7,0,13.3,0,20.4,0c0,28.7,0,57.3,0,86.3c11,0,21.5,0,32.5,0c0-28.7,0-57.2,0-86.2c7,0,13.5,0,20.4,0
		C433.4,77.2,433.4,140.8,433.4,204.7z"/>
	<path d="M97,108.8c0-19.2,0-38.3,0-57.5c0-11.9,2.8-22.9,11.9-31.3c11.6-10.7,25.4-12.3,39.5-6.8c13.5,5.2,20,16.5,21.7,30.5
		c0.6,5.3,0.7,10.6,0.7,15.9c0.1,35,0.1,70,0,104.9c0,10.5-1.5,20.6-8.1,29.3c-9.5,12.3-22.4,15.7-36.9,13
		c-13.8-2.6-22.7-11.5-26.5-24.9c-1.5-5.4-2-11.1-2.1-16.8C96.8,146.4,97,127.6,97,108.8z M117.8,108.9
		C117.8,108.9,117.8,108.9,117.8,108.9c0,12.8,0,25.6,0,38.4c0,8.3-0.2,16.7,0.2,25c0.5,11.8,9.8,18.2,21.2,14.8
		c7.4-2.2,11-7.7,11-17.4c0.1-38.8,0-77.6,0-116.3c0-2.5,0-5-0.1-7.5c-0.6-10.9-9.2-17.6-19.9-15.3c-8,1.7-12.2,7.2-12.3,16.9
		C117.7,68,117.8,88.5,117.8,108.9z"/>
	<path d="M190.1,13.4c6.8,0,13.2,0,20.4,0c0,2.1,0,4.2,0,6.3c0,48.5,0,97,0,145.5c0,2.7,0,5.3,0.2,8c0.8,10.3,6,15.1,16.1,15
		c9.5-0.1,15-5.4,15.1-15.4c0.3-18.5,0.1-37,0.2-55.5c0-32.5,0-65,0-97.5c0-2,0-3.9,0-6.3c6.8,0,13.2,0,19.9,0
		c0.1,1.8,0.2,3.4,0.2,5c0,49.3,0,98.6,0,148c0,12.6-2.4,24.3-12.6,32.8c-11.4,9.6-24.5,10.9-38,5.7c-13.4-5.2-19.7-16.2-21.5-30.1
		c-0.4-2.8-0.3-5.7-0.3-8.5c0-49.3,0-98.6,0-148C189.9,16.9,190,15.2,190.1,13.4z"/>
	<path d="M1265,75.5c-5.8,0-11.7,0-18.2,0c0-7.7,0-15.2,0-22.6c0-2.5,0.1-5-0.1-7.5c-0.9-9.8-7.1-15.5-16.3-15.2
		c-9.2,0.4-15.3,6.5-15.4,16.2c-0.2,35.8-0.1,71.7-0.1,107.5c0,6.5-0.1,13,0.1,19.5c0.4,9.9,6.3,15.6,15.7,15.7
		c9.6,0.1,16.2-5.9,16.4-15.7c0.3-15,0.1-29.9,0.1-45.4c-5.1,0-9.8,0-14.8,0c0-6.2,0-11.7,0-17.8c11.4,0,22.8,0,34.6,0
		c0,31.3,0,62.7,0,94.1c-9.6,4.2-10.5-4.6-13.6-10c-12.5,14.6-28.5,17.7-43.2,8.6c-8.9-5.6-13.4-14.2-15.1-24.2
		c-0.7-3.9-1-7.9-1-11.9c-0.1-38.3,0-76.7,0-115c0-12.1,2.7-23.3,11.9-31.7c11.3-10.4,24.6-12,38.6-7c12.8,4.6,18.9,15.2,20.2,28
		C1265.8,52.2,1265,63.6,1265,75.5z"/>
	<path d="M1695,148.5c7,0,13.3,0,20.1,0c0,6.4-0.2,12.5,0.1,18.6c0.2,4,0.5,8,1.6,11.8c2.4,8,7.9,11.6,16.1,11.2
		c7.8-0.4,12.8-4.5,14.3-12.8c2.6-14.6-1.3-28.2-8.4-40.7c-4.7-8.2-10.4-15.8-15.9-23.5c-11.4-15.9-21.9-32.4-25.1-52.2
		c-2.4-15.3-0.7-30.1,11.1-41.7c14.4-14.1,47.8-13.2,56.3,14.9c0.8,2.5,1.6,5.2,1.7,7.8c0.2,9.5,0.1,19,0.1,28.8
		c-6.1,0-12.4,0-19.1,0c0-6.3,0.2-12.4-0.1-18.5c-0.2-4.5-0.6-9-1.8-13.3c-2-6.9-7.3-10.1-14.4-9.8c-7.2,0.3-12.2,3.9-13.6,11
		c-2.6,12.4-0.2,24.4,5.7,35.3c5.4,9.9,11.9,19.2,18.5,28.4c9.8,13.6,19,27.3,23.4,43.7c3.2,12,3.9,24,0.1,36
		c-4.9,15.6-19.5,25.5-35.5,24.4c-18.7-1.2-31.1-11.8-34.2-29.1c-0.5-2.9-0.8-6-0.9-8.9C1694.9,162.8,1695,155.8,1695,148.5z"/>
	<path d="M725.2,70.9c-7.7,0-13.6,0-20.4,0c0-5.8,0.2-11.6-0.1-17.3c-0.2-4.6-0.4-9.4-1.6-13.8c-1.9-7.4-7-10.9-14.3-10.7
		c-7.6,0.2-12.7,4-14.2,11.5c-2.3,12.2,0,24.1,5.9,34.8c5.6,10.1,12.3,19.7,19.1,29.2c9.5,13.3,18.5,26.9,22.8,43
		c3.1,11.6,3.8,23.4,0.3,35c-4.7,16-19.1,26.1-35.4,25.3c-18.4-0.9-30.9-11.1-34.4-28.3c-0.6-3.1-1-6.3-1-9.4
		c-0.1-7.1,0-14.3,0-21.7c6.7,0,13,0,20.1,0c0,5.9-0.2,11.8,0.1,17.7c0.2,4.4,0.6,9,1.8,13.3c2.3,7.7,7.9,11.1,16,10.7
		c7.6-0.4,12.6-4.4,14.1-12.4c2.8-14.8-1.2-28.5-8.4-41.2c-4.6-8.1-10.2-15.6-15.7-23.1c-11.4-15.9-22-32.3-25.2-52.1
		c-2.5-15.3-0.9-30.1,10.7-41.8c14.2-14.4,48.8-13.8,56.3,14.8C724.8,45.8,724.2,58.3,725.2,70.9z"/>
	<path d="M80.9,70.8c-6.3,0-12.4,0-19.1,0c0-6.3,0.2-12.5-0.1-18.6c-0.2-4.5-0.6-9-1.8-13.3c-2-6.9-7.2-10.2-14.4-9.9
		c-7.2,0.3-12.2,3.9-13.7,10.9c-2.6,12.4-0.2,24.4,5.7,35.3c5.5,10,12.1,19.5,18.8,28.8c9.7,13.4,18.8,27.1,23.2,43.3
		c3.2,12,3.9,24,0.1,36c-5,15.8-19.8,25.8-35.9,24.5c-19-1.5-31.7-12.3-33.8-30c-1.1-9.5-0.2-19.2-0.2-29.2c6,0,12.4,0,19.4,0
		c0,5.1-0.1,10,0,15c0.1,4,0.1,8,0.8,11.9c1.7,10.2,7.8,15.2,17.4,14.6c8.7-0.6,14-6.5,14.6-16.6c0.7-13.3-2.5-25.9-9.3-37.2
		c-4.7-8-10.3-15.5-15.7-23.1C25.5,97.2,14.9,80.8,11.8,61c-2.5-15.3-0.7-30.1,11-41.7C37.1,5.1,70.6,5.9,79.1,34
		c0.8,2.5,1.7,5.2,1.7,7.8C81,51.3,80.9,60.8,80.9,70.8z"/>
	<path d="M873.6,114.9c0,24.1,0,47.2,0,70.8c13.4,0,26.4,0,39.8,0c0,6.6,0,12.7,0,19c-20.1,0-40,0-60.3,0c0-63.6,0-127.3,0-191.3
		c20,0,39.9,0,60.2,0c0,6,0,12.1,0,18.8c-13.1,0-26.1,0-39.6,0c0,21.5,0,42.4,0,64c9.3,0,18.7,0,28.4,0c0,6.5,0,12.3,0,18.7
		C892.8,114.9,883.4,114.9,873.6,114.9z"/>
	<path d="M1028.1,13.4c20.1,0,40,0,60.6,0c0,5.7,0.2,11.3-0.2,16.8c-0.1,0.8-2.6,2.1-4,2.1c-10,0.2-20,0.1-30,0.1
		c-1.8,0-3.6,0-5.8,0c0,21.3,0,42.2,0,63.8c9.4,0,18.8,0,28.4,0c0,6.5,0,12.3,0,18.7c-9.4,0-18.8,0-28.5,0c0,23.8,0,47,0,70.8
		c13.4,0,26.4,0,39.8,0c0,6.6,0,12.7,0,19c-20.1,0-40,0-60.3,0C1028.1,141,1028.1,77.4,1028.1,13.4z"/>
	<path d="M580.1,13.4c20.1,0,40,0,60.3,0c0,6.2,0,12.2,0,18.9c-13.2,0-26.3,0-39.7,0c0,21.5,0,42.4,0,64c9.4,0,18.8,0,28.4,0
		c0,6.5,0,12.3,0,18.7c-9.4,0-18.8,0-28.5,0c0,23.8,0,47,0,70.8c13.4,0,26.5,0,39.8,0c0,6.6,0,12.7,0,19c-20.2,0-40.1,0-60.4,0
		C580.1,141,580.1,77.3,580.1,13.4z"/>
	<path d="M1519.6,114.9c0,23.9,0,47,0,70.6c13.3,0,26.3,0,39.8,0c0,6.6,0,12.6,0,19.1c-20,0-40,0-60.3,0c0-63.7,0-127.2,0-191.1
		c20.1,0,40.1,0,60.5,0c0,6.3,0,12.3,0,19c-13.4,0-26.5,0-39.8,0c0,21.5,0,42.4,0,63.9c8.2,0,16.1,0.2,24.1-0.1
		c3.8-0.1,5,1.1,4.8,4.8c-0.3,4.4-0.1,8.9-0.1,13.8C1538.7,114.9,1529.4,114.9,1519.6,114.9z"/>
	<path d="M1357.4,13.1c-2.3,8.9-4.5,17.2-6.7,25.5c-7.7,28.9-15.6,57.8-23.2,86.8c-0.8,2.9-1.1,5.9-1.1,8.9c-0.1,23.3,0,46.6,0,70.3
		c-6.8,0-13.4,0-20.3,0c-0.1-1.8-0.2-3.5-0.2-5.3c0-20.3-0.3-40.7,0.1-61c0.2-13-4.4-24.8-7.4-37c-6.8-27.8-14.1-55.5-21.2-83.2
		c-0.4-1.4-0.6-2.9-1-4.7c6.8,0,13.3,0,20.5,0c6.6,28.8,13.3,57.7,19.9,86.6c0.3,0,0.7,0,1,0c2.8-12,5.5-24,8.3-36
		c3.6-15.6,7.3-31.1,10.7-46.7c0.7-3.2,1.8-4.5,5.2-4.3C1346.8,13.3,1351.8,13.1,1357.4,13.1z"/>
	<path d="M781.7,204.9c-7.3,0-13.6,0-20.4,0c0-57.1,0-114.2,0-171.8c-8.7,0-17,0-25.5,0c0-6.8,0-13.1,0-19.6c23.4,0,46.7,0,70.1,0
		c0,6.5,0,12.7,0,19.4c-8.1,0-15.8,0-24.2,0C781.7,90.3,781.7,147.4,781.7,204.9z"/>
	<path d="M300.9,204.8c0-57.5,0-114.4,0-171.8c-8.4,0-16.5,0-25.1,0c0-6.6,0-12.9,0-19.5c23.2,0,46.4,0,70,0c0,6.3,0,12.5,0,19.3
		c-8,0-15.9,0-24.3,0c0,57.7,0,114.8,0,171.9C314.5,204.8,308,204.8,300.9,204.8z"/>
	<path class="st0" d="M1127.1,33c6.4,0,12.3-0.2,18.3,0.1c4.5,0.2,7.5,2.8,8.6,7.1c0.6,2.4,0.9,4.9,0.9,7.4c0.1,12.7,0.1,25.3,0,38
		c-0.1,12.5-4.7,17-17.3,17c-3.4,0-6.9,0-10.6,0C1127.1,79.1,1127.1,56.4,1127.1,33z"/>
</g>
</svg>
