<?xml version="1.0" encoding="utf-8"?>
<!-- Generator: Adobe Illustrator 19.2.1, SVG Export Plug-In . SVG Version: 6.00 Build 0)  -->
<svg version="1.1" id="Layer_0_xA0_Image_1_" xmlns="http://www.w3.org/2000/svg" xmlns:xlink="http://www.w3.org/1999/xlink"
	 x="0px" y="0px" viewBox="0 0 853 106.2" style="enable-background:new 0 0 853 106.2;" xml:space="preserve">
<style type="text/css">
	.st0{fill:#C25000;}
</style>
<g>
	<path class="st0" d="M66.4,3.8c1.5,0.2,3,0.3,4.4,0.7c7.3,1.9,11.3,6.9,12.8,14c0.4,1.9,0.5,3.8,0.5,5.7c0,18.7,0,37.4,0,56.1
		c0,3.9-0.6,7.6-2.4,11.1c-3.2,6.2-9.7,9.6-16.6,9.2c-11-0.7-16.2-8.9-16.8-17.2c-0.1-1.8-0.2-3.5-0.2-5.3c0-17.9,0-35.8,0-53.7
		c0-3.5,0.4-7,1.9-10.2C52.8,8.1,57.5,4.7,64.3,4c0.5,0,1-0.2,1.5-0.3C66,3.8,66.2,3.8,66.4,3.8z M74.3,52.3c0-5.2,0-10.5,0-15.7
		c0-5.1,0.1-10.3,0-15.4c-0.1-4.1-2.8-7-6.7-7.6c-4-0.6-7.6,1.3-8.7,4.9c-0.5,1.6-0.7,3.3-0.7,4.9c0,19.1,0,38.3,0,57.4
		c0,1,0.1,1.9,0.1,2.9C58.9,90,65,93.2,70.5,90c2.8-1.6,3.7-4.3,3.7-7.3C74.3,72.6,74.3,62.4,74.3,52.3z"/>
	<path class="st0" d="M585.1,3.8c1.1,0.2,2.2,0.3,3.3,0.5c7.2,1.4,11.2,6,12.8,12.9c0.4,1.7,0.6,3.4,0.6,5.1c0.1,4,0,8.1,0.1,12.1
		c0,1-0.2,1.5-1.4,1.4c-2.5-0.1-5.1,0-7.8,0c0-0.7,0-1.2,0-1.7c0-4.1,0-8.3,0-12.4c0-4.9-2.8-8-7.2-8.2c-4.8-0.3-8,2.5-8.5,7.4
		c-0.1,0.7-0.1,1.3-0.1,2c0,19.6,0,39.3,0,58.9c0,1.6,0.2,3.3,0.6,4.8c1,3.5,4,5.2,8.1,5c3.5-0.2,6.3-2.4,7.1-5.8
		c0.2-0.8,0.3-1.6,0.3-2.4c0-7,0-14,0-21c0-0.2,0-0.5-0.1-0.9c-2.4,0-4.8,0-7.3,0c0-3,0-5.7,0-8.6c5.7,0,11.3,0,17,0
		c0,15.5,0,30.9,0,46.4c-1.4,0-2.7,0-4.1,0c-0.9-1.8-1.7-3.6-2.7-5.5c-0.5,0.8-0.9,1.4-1.3,1.9c-3.2,4.2-7.6,5.4-12.5,5
		c-7.8-0.7-13.2-5.9-14.6-13.9c-0.4-2-0.5-4-0.5-6c0-18.9,0-37.8,0-56.7c0-5.2,1.1-10.1,4.6-14.2c3-3.4,6.8-5.3,11.3-5.7
		c0.6-0.1,1.2-0.2,1.8-0.3C584.7,3.8,584.9,3.8,585.1,3.8z"/>
	<path class="st0" d="M23.8,3.8c1,0.2,2.1,0.3,3.1,0.5c6.9,1.4,11.9,6.4,12.9,13.7c0.6,4.9,0.3,9.9,0.4,14.8c0,0.3-0.5,0.8-0.7,0.8
		c-2.8,0.1-5.6,0-8.7,0c0-0.7,0-1.3,0-1.8c-0.1-4.1,0-8.3-0.4-12.3c-0.3-2.8-1.8-5.2-4.8-6.1c-2.8-0.8-5.6-0.5-7.8,1.6
		c-2.1,2-2.3,4.6-2.3,7.3c0,7.5,2.8,13.9,6.9,19.9c3.2,4.7,6.7,9.2,9.9,14c3.2,4.7,5.7,9.8,7.1,15.3c1.6,6.4,1.9,12.8-0.7,19
		c-2.9,6.8-9.5,10.7-16.8,10.2C11.7,100,5.5,93.7,5,83.5C4.9,80,5,76.5,5,73c0-1.1,0.4-1.4,1.4-1.4c2.3,0.1,4.5,0.1,6.8,0
		c1.2,0,1.5,0.5,1.5,1.6c0,3.5,0,6.9,0.1,10.4c0.1,4,2.3,7.2,5.4,8.3c4.7,1.6,9.2-0.9,10.3-5.7c1.1-4.8,0.2-9.5-1.3-14.1
		c-1.6-4.8-4.1-9.1-7.1-13.1c-4.1-5.5-8.2-10.9-11.2-17c-2.7-5.4-4.9-10.9-5-17c-0.1-5.1,0.7-10,3.7-14.4c2.8-4,6.7-6,11.5-6.5
		c0.7-0.1,1.4-0.2,2.1-0.3C23.4,3.8,23.6,3.8,23.8,3.8z"/>
	<path class="st0" d="M848.6,82.1c-0.3,1.6-0.5,3.3-0.9,4.9c-2,9.1-9.7,14.6-19,13.6c-9.5-1.1-15.4-7.3-15.8-16.8
		c-0.2-3.6-0.1-7.2-0.1-10.8c0-1,0.4-1.4,1.3-1.3c2.4,0,4.7,0,7.1,0c1,0,1.3,0.4,1.3,1.4c0,3.5,0,6.9,0.2,10.4
		c0.1,1.5,0.4,2.9,1,4.3c1.3,3.3,4.3,4.9,8,4.6c3.4-0.3,5.9-2.3,6.6-5.8c0.4-1.7,0.5-3.5,0.4-5.3c-0.3-8.3-3.8-15.4-8.6-22
		c-4.1-5.6-8.3-11-11.4-17.3c-2.7-5.4-4.9-10.9-5-16.9c-0.1-5.1,0.7-10,3.7-14.4c2.8-4,6.7-6,11.5-6.5c0.7-0.1,1.4-0.2,2.1-0.3
		c0.2,0,0.4,0,0.6,0c1,0.2,2.1,0.3,3.1,0.5c6.9,1.4,12,6.5,12.9,13.9c0.6,5,0.3,10,0.4,15.1c0,0.1-0.1,0.2-0.2,0.4
		c-2.3,0-4.7,0-7.1,0c-2.1,0-2.1,0-2.1-2.1c-0.1-4,0-8.1-0.4-12.1c-0.5-4.3-3.5-6.7-7.7-6.5c-4.1,0.2-6.8,2.9-7.1,7.2
		c-0.4,5.6,0.7,10.9,3.3,16c2.9,5.8,7,10.8,10.7,16c4.2,5.9,7.9,12,9.7,19.1c0.6,2.3,0.9,4.6,1.4,6.9
		C848.6,79.4,848.6,80.8,848.6,82.1z"/>
	<path class="st0" d="M319.9,3.8c1,0.2,2.1,0.3,3.1,0.5c6.9,1.4,11.9,6.4,12.9,13.7c0.6,4.9,0.3,9.9,0.4,14.8c0,0.3-0.5,0.8-0.7,0.8
		c-2.8,0.1-5.6,0-8.7,0c0-0.7,0-1.3,0-1.8c-0.1-4.1,0-8.3-0.4-12.3c-0.3-2.8-1.8-5.2-4.8-6.1c-2.8-0.8-5.6-0.5-7.8,1.6
		c-2.1,2-2.3,4.6-2.3,7.3c0,7.5,2.8,13.9,6.9,19.9c3.2,4.7,6.7,9.2,9.9,14c3.2,4.7,5.7,9.8,7.1,15.3c1.6,6.4,1.9,12.8-0.7,19
		c-2.9,6.8-9.5,10.7-16.8,10.2c-10.2-0.7-16.4-7-16.9-17.2c-0.2-3.5,0-7-0.1-10.5c0-1.1,0.4-1.4,1.4-1.4c2.3,0.1,4.5,0.1,6.8,0
		c1.2,0,1.5,0.5,1.5,1.6c0,3.5,0,6.9,0.1,10.4c0.1,4,2.3,7.2,5.4,8.3c4.7,1.6,9.2-0.9,10.3-5.7c1.1-4.8,0.2-9.5-1.3-14.1
		c-1.6-4.8-4.1-9.1-7.1-13.1c-4.1-5.5-8.2-10.9-11.2-17c-2.7-5.4-4.9-10.9-5-17c-0.1-5.1,0.7-10,3.7-14.4c2.8-4,6.7-6,11.5-6.5
		c0.7-0.1,1.4-0.2,2.1-0.3C319.5,3.8,319.7,3.8,319.9,3.8z"/>
	<path class="st0" d="M799.1,5.4c3.2,0,6.1,0,9.3,0c-4.1,31.4-8.3,62.6-12.4,93.9c-3.2,0-6.2,0-9.3,0c-2.5-20.1-4.9-40.2-7.4-60.3
		c-0.1,0-0.2,0-0.3,0c-2.7,20.1-5.5,40.1-8.2,60.3c-3.2,0-6.2,0-9.5,0c-3.5-31.2-7-62.4-10.6-93.8c3.3,0,6.4,0,9.8,0
		c2,22.2,4,44.5,6,66.8c0.1,0,0.2,0,0.3,0c3-22.2,6-44.5,9.1-66.8c2.7,0,5.3,0,8.2,0c2.6,22.2,5.2,44.4,7.8,66.7c0.1,0,0.2,0,0.3,0
		C794.5,49.9,796.8,27.6,799.1,5.4z"/>
	<path class="st0" d="M705.6,99.3c-2.3,0-4.5,0.1-6.7-0.1c-0.3,0-0.8-0.7-0.9-1.2c-3.1-9.1-6.2-18.2-9.2-27.4
		c-3.5-10.8-7-21.7-10.4-32.6c-0.1-0.3-0.2-0.6-0.6-0.9c0,20.6,0,41.2,0,61.9c-3.2,0-6.2,0-9.3,0c0-31.2,0-62.5,0-93.9
		c2.8,0,5.5,0,8.3,0.1c0.3,0,0.8,0.8,1,1.3c2.2,7.3,4.5,14.7,6.6,22c3.8,12.8,7.5,25.6,11.3,38.5c0.1,0.4,0.2,0.7,0.6,1
		c0-20.9,0-41.8,0-62.7c3.2,0,6.2,0,9.4,0C705.6,36.6,705.6,67.9,705.6,99.3z"/>
	<path class="st0" d="M446.9,99.2c-3.2,0-6.2,0-9.4,0c0-31.3,0-62.5,0-93.9c2.8,0,5.6,0,8.3,0.1c0.3,0,0.8,0.7,0.9,1.2
		c2.5,8.3,5.1,16.7,7.5,25c3.5,11.8,6.9,23.7,10.4,35.6c0.1,0.3,0.2,0.7,0.6,1c0-20.9,0-41.8,0-62.8c3.2,0,6.2,0,9.4,0
		c0,31.3,0,62.5,0,93.9c-2.2,0-4.5,0.1-6.7-0.1c-0.3,0-0.7-0.7-0.9-1.2c-3.6-10.5-7.1-21-10.6-31.6c-3.1-9.4-6-18.8-9-28.2
		c-0.1-0.3-0.2-0.7-0.6-1C446.9,57.9,446.9,78.5,446.9,99.2z"/>
	<path class="st0" d="M523.4,5.4c0.3,0,0.5-0.1,0.7-0.1c6.6,0.1,13.2,0,19.9,0.2c7.3,0.3,12.1,4.8,13.2,12.1
		c0.2,1.3,0.3,2.6,0.3,3.9c0,6.9,0.1,13.7,0,20.6c-0.1,3.5-0.9,6.8-3.7,9.2c-1.1,0.9-2.4,1.6-3.8,2.4c0.8,0.4,1.5,0.7,2.2,1.1
		c3.9,2.4,5.5,6.2,5.6,10.6c0.2,7.7,0.1,15.5,0.1,23.2c0,0.6,0,1.2,0,1.9c0.1,1.6,0.6,2.8,2.5,3c0,2.2,0,4.4,0,6.7
		c-2.9,0.1-5.7,0.2-8.4-0.9c-3.1-1.4-3.8-4.2-3.8-7.2c-0.1-7,0-14-0.1-21c0-2.4,0-4.8-0.2-7.2c-0.4-3.8-2.8-5.9-6.6-5.9
		c-2.3,0-4.6,0-6.9,0c-0.1,0-0.3,0-0.6,0.1c0,13.7,0,27.4,0,41.3c-3.5,0-6.8,0-10.2,0C523.4,68,523.4,36.7,523.4,5.4z M533.6,49.1
		c2.5,0,4.8,0,7,0c4.1-0.1,6.7-2.4,6.8-6.5c0.2-7.5,0.1-15,0-22.5c0-2.6-1.4-4.8-3.5-5c-3.4-0.4-6.8-0.4-10.3-0.6
		C533.6,26.3,533.6,37.6,533.6,49.1z"/>
	<path class="st0" d="M187.3,57.3c0,14.1,0,27.9,0,41.9c-3.4,0-6.7,0-10.1,0c0-31.3,0-62.5,0-93.8c3.3,0,6.6,0,10.1,0
		c0,14.1,0,28.3,0,42.5c0.7,0,1.3,0.1,1.8,0.1c4.1,0,8.3,0,12.4,0c2,0,2,0,2-1.9c0-12.9,0-25.8,0-38.7c0-0.6,0-1.2,0-2
		c3.3,0,6.4,0,9.7,0c0,31.2,0,62.5,0,93.8c-3.2,0-6.3,0-9.7,0c0-0.7,0-1.3,0-1.9c0-12.7,0-25.4,0-38.2c0-1.9,0-1.9-1.8-1.9
		c-4.2,0-8.4,0-12.5,0C188.6,57.3,188.1,57.3,187.3,57.3z"/>
	<path class="st0" d="M93.5,5.4c3.4,0,6.6,0,10,0c0,0.7,0,1.3,0,1.9c0,24.7,0,49.4,0,74.2c0,1.2,0.1,2.5,0.3,3.7
		c0.8,4.9,4.2,6.3,8,6.1c4.9-0.3,7.3-2.9,7.4-7.9c0.1-10.8,0-21.5,0-32.3c0-14.6,0-29.2,0-43.8c0-0.6,0-1.1,0-1.8c3.2,0,6.3,0,9.6,0
		c0,0.3,0.1,0.7,0.1,1.1c0,25.6,0,51.2-0.1,76.7c0,8.6-5.6,15.4-13.9,17.1c-10,2-19.6-3.5-21.2-14.8c-0.2-1.4-0.3-2.9-0.3-4.3
		c0-24.7,0-49.4,0-74.2C93.5,6.5,93.5,6,93.5,5.4z"/>
	<path class="st0" d="M296.3,99.3c-3.2,0-6.2,0-9.2,0c-0.9,0-1-0.5-1.1-1.1c-0.7-5.5-1.4-10.9-2-16.4c-0.1-0.9-0.2-1.8-0.4-2.8
		c-0.5,0-1-0.1-1.5-0.1c-3.5,0-6.9,0-10.4,0c-0.9,0-1.3,0.2-1.5,1.2c-0.8,6-1.7,11.9-2.6,17.9c-0.1,0.9-0.4,1.3-1.4,1.3
		c-2.7-0.1-5.4,0-8.2,0c0.5-3.5,1-6.8,1.5-10.1c1.4-9.2,2.8-18.4,4.2-27.6c1.4-9.1,2.8-18.3,4.1-27.4c1.4-9.2,2.8-18.4,4.2-27.6
		c0.2-1,0.5-1.4,1.5-1.4c2.6,0.1,5.3,0.1,7.9,0c0.9,0,1.3,0.2,1.4,1.1c1.4,10.1,2.9,20.2,4.4,30.3s2.9,20.3,4.4,30.4
		c1.5,10.2,3,20.4,4.5,30.6C296.2,98.2,296.3,98.7,296.3,99.3z M277.5,28.4c-0.1,0-0.3,0-0.4,0c-1.8,13.7-3.6,27.4-5.4,41.2
		c3.6,0,7,0,10.6,0C280.7,55.7,279.1,42,277.5,28.4z"/>
	<path class="st0" d="M234.2,46.2c4.8,0,9.4,0,14.1,0c0,3,0,5.9,0,9c-0.6,0-1.1,0-1.6,0c-3.8,0-7.6,0-11.4,0c-0.9,0-1.3,0.2-1.3,1.2
		c0,10.8,0,21.6,0,32.4c0,1.1,0.5,1.2,1.4,1.2c5.6,0,11.1,0,16.7,0c0.5,0,1,0,1.6,0c0,3.2,0,6.2,0,9.3c-9.9,0-19.7,0-29.6,0
		c0-31.2,0-62.5,0-93.8c9.9,0,19.7,0,29.6,0c0,3.1,0,6.1,0,9.2c-6.5,0-13,0-19.6,0C234.2,25.2,234.2,35.6,234.2,46.2z"/>
	<path class="st0" d="M399.3,5.4c9.9,0,19.7,0,29.6,0c0,3.1,0,6.1,0,9.3c-0.5,0-1.1,0-1.6,0c-5.6,0-11.1,0-16.7,0
		c-0.9,0-1.4,0-1.4,1.2c0,9.7,0,19.5,0,29.2c0,0.3,0.1,0.6,0.1,1.1c4.7,0,9.3,0,14.1,0c0,3,0,5.9,0,9c-4.6,0-9.3,0-14.1,0
		c0,11.7,0,23.2,0,34.8c6.6,0,13,0,19.6,0c0,3.1,0,6.1,0,9.3c-9.8,0-19.7,0-29.6,0C399.3,68,399.3,36.7,399.3,5.4z"/>
	<path class="st0" d="M485,99.2c0-31.3,0-62.5,0-93.8c9.9,0,19.7,0,29.7,0c0,3,0,6,0,9.2c-6.5,0-13,0-19.6,0c0,10.6,0,20.9,0,31.5
		c4.7,0,9.4,0,14.1,0c0,3.1,0,6,0,9.1c-0.5,0-1.1,0-1.6,0c-3.8,0-7.6,0-11.4,0c-0.9,0-1.3,0.2-1.3,1.2c0,10.8,0,21.6,0,32.4
		c0,1.2,0.6,1.2,1.5,1.2c5.5,0,11,0,16.6,0c0.5,0,1,0,1.7,0c0,3.1,0,6.1,0,9.3C504.8,99.2,495,99.2,485,99.2z"/>
	<path class="st0" d="M745.6,99.3c-9.9,0-19.7,0-29.6,0c0-31.3,0-62.5,0-93.8c9.8,0,19.7,0,29.6,0c0,3,0,6,0,9.2c-6.5,0-13,0-19.6,0
		c0,0.7-0.1,1.2-0.1,1.7c0,9.4,0,18.7,0,28.1c0,1.4,0.3,1.8,1.7,1.8c4.1-0.1,8.2,0,12.5,0c0,3,0,5.9,0,9.1c-0.5,0-1,0-1.6,0
		c-3.8,0-7.6,0-11.4,0c-0.9,0-1.3,0.2-1.3,1.2c0,10.8,0,21.6,0,32.4c0,1.2,0.6,1.2,1.4,1.2c5.5,0,11,0,16.6,0c0.5,0,1,0,1.7,0
		C745.6,93.1,745.6,96.1,745.6,99.3z"/>
	<path class="st0" d="M637,5.4c3.2,0,6.2,0,9.5,0c-0.2,0.8-0.3,1.6-0.5,2.3c-4.7,17.7-9.5,35.4-14.2,53.2c-0.2,0.9-0.3,1.8-0.3,2.7
		c0,11.3,0,22.7,0,34c0,0.6,0,1.1,0,1.8c-3.3,0-6.5,0-9.9,0c0-0.5-0.1-1.1-0.1-1.6c0-9.1-0.2-18.1,0.1-27.2
		c0.1-5.5-0.7-10.8-2.1-16.2c-4.2-15.8-8.2-31.7-12.2-47.6c-0.1-0.4-0.1-0.7-0.2-1.3c2.6,0,5,0,7.5,0c3,0,2.3-0.3,2.9,2.3
		c3.1,13.4,6.1,26.8,9.2,40.2c0.1,0.3,0.2,0.5,0.6,0.8C630.4,34.2,633.7,19.8,637,5.4z"/>
	<path class="st0" d="M363.9,99.2c-3.3,0-6.4,0-9.8,0c0-0.6,0-1.3,0-1.9c0-26.8,0-53.6,0-80.5c0-2.1,0-2.1-2.1-2.1
		c-3.4,0-6.9,0-10.4,0c0-3.2,0-6.2,0-9.4c0.5,0,1-0.1,1.4-0.1c10.5,0,20.9,0,31.4,0c1.4,0,1.7,0.4,1.7,1.7c-0.1,2.2-0.1,4.3,0,6.5
		c0,1-0.4,1.3-1.3,1.3c-3,0-6,0-9.1,0c-1.4,0-1.8,0.3-1.8,1.8c0.1,7.7,0,15.4,0,23c0,19.3,0,38.6,0,57.9
		C363.9,98,363.9,98.6,363.9,99.2z"/>
	<path class="st0" d="M135.7,14.7c0-3.2,0-6.2,0-9.3c0.5,0,0.9-0.1,1.3-0.1c10.6,0,21.1,0,31.7,0c1.2,0,1.6,0.3,1.5,1.5
		c-0.1,2.2-0.1,4.4,0,6.6c0,1-0.3,1.3-1.3,1.3c-3-0.1-6,0.1-9.1-0.1c-1.5-0.1-1.8,0.5-1.8,1.9c0,26.9,0,53.7,0,80.6
		c0,0.7,0,1.3,0,2.1c-3.3,0-6.4,0-9.8,0c0-0.7,0-1.4,0-2c0-26.8,0-53.6,0-80.5c0-2,0-2-2.1-2C142.7,14.7,139.3,14.7,135.7,14.7z"/>
</g>
</svg>
