<?xml version="1.0" encoding="utf-8"?>
<!-- Generator: Adobe Illustrator 19.2.1, SVG Export Plug-In . SVG Version: 6.00 Build 0)  -->
<svg version="1.1" id="Layer_1" xmlns="http://www.w3.org/2000/svg" xmlns:xlink="http://www.w3.org/1999/xlink" x="0px" y="0px"
	 viewBox="0 0 424.3 79.1" style="enable-background:new 0 0 424.3 79.1;" xml:space="preserve">
<style type="text/css">
	.st0{fill:#494A52;}
</style>
<g>
	<path class="st0" d="M101.9,72.1V5.5h21.2v6.7h-14v22.2h10.1v6.5h-10.1v24.5h14v6.7H101.9z"/>
	<path class="st0" d="M150.1,72.1l-11.3-33.7l-3.2-10.7v44.4h-6.8V5.5h6.5l10.3,34.2l3,10.8v-45h6.8v66.6H150.1z"/>
	<path class="st0" d="M162.6,72.1V5.5h21.2v6.7h-14v22.2h10.1v6.5h-10.1v24.5h14v6.7H162.6z"/>
	<path class="st0" d="M213.7,72.7c-4.8,0-6.7-1.6-6.7-7.2V48.3c0-3.4-1.6-5.5-4.6-5.5h-5.5v29.3h-7.3V5.5h13.2
		c6.2,0,11.1,3.1,11.1,12v12.7c0,4.9-1.4,8.2-5.6,9.5c4.1,1.3,5.8,5.1,5.8,9.4v16.1c0,1.8,0.4,2.6,1.8,2.6v4.9H213.7z M206.7,17
		c0-3.1-1.3-4.7-4-4.7h-5.8v24.2h5.2c2.8,0,4.6-2,4.6-5.5V17L206.7,17z"/>
	<path class="st0" d="M242.8,72.1l-1.9-4c-1.5,3.3-4.8,5-8.9,5c-6.4,0-11.6-4.9-11.6-13.7V18.2c0-7.8,5-13.7,12.8-13.7
		s12.1,5.6,12.1,13.7v9h-6.6V17c0-3-1.8-5.6-5.5-5.6s-5.6,2.7-5.6,5.7v43.4c0,3.4,1.7,6.1,5.6,6.1c3.8,0,5.7-2.7,5.7-6.1V45.3h-5.3
		V39h12.3v33.1H242.8z"/>
	<path class="st0" d="M266.1,45.8v26.3h-7.2V45.8L248.6,5.5h7.2l7.1,31l7.1-31h6.9L266.1,45.8z"/>
	<path class="st0" d="M313.4,72.1l-11.3-33.7l-3.2-10.7v44.4h-6.8V5.5h6.5l10.3,34.2l3,10.8v-45h6.8v66.6H313.4z"/>
	<path class="st0" d="M325.9,72.1V5.5h21.2v6.7h-14v22.2h10.1v6.5h-10.1v24.5h14v6.7H325.9z"/>
	<path class="st0" d="M382.5,72.1h-6.7l-5.3-43.2l-5.9,43.2h-6.8l-7.5-66.6h7.1l4.3,47.8l6.5-47.8h5.9l5.6,47.8l4.9-47.8h6.7
		L382.5,72.1z"/>
	<path class="st0" d="M407,73.1c-7.8,0-12.7-5.4-12.7-13.1v-7.6h7v7.3c0,4.4,2.1,7.3,5.6,7.3c4,0,5.8-2.6,5.8-6.8
		c0-6.4-2.4-11.8-7.6-18.5c-4.7-6-10.2-14.9-10.2-22.7c0-8.3,4.1-14.5,12.6-14.5c7.2,0,11.9,5.4,11.9,13.2v7.9h-6.8v-7.3
		c0-4.6-1.7-7.3-5.3-7.3c-3.5,0-5.4,2.2-5.4,6.1c0,7.1,2.5,11.6,8.4,19.4c5.8,7.5,9.4,14.5,9.4,22.1C419.7,69.2,413.1,73.1,407,73.1
		z"/>
</g>
<g>
	<path class="st0" d="M25.8,5.5h6.6v47.4c0,12.5-3.2,20.1-13.9,20.1c-12,0-13.8-8.7-13.8-20.4v-47h6.6v46.2
		c0,10.9,1.6,14.8,7.2,14.8c6.1,0,7.2-4.2,7.2-14.6V5.5H25.8z"/>
	<path class="st0" d="M36.7,60.8h6.9v11h-6.9V60.8z"/>
	<path class="st0" d="M81,60.8h6.9v11H81V60.8z"/>
	<path class="st0" d="M62.8,73.1c-7.8,0-12.7-5.4-12.7-13.1v-7.6h7v7.3c0,4.4,2.1,7.3,5.6,7.3c4,0,5.8-2.6,5.8-6.8
		c0-6.4-2.4-11.8-7.6-18.5c-4.7-6-10.2-14.9-10.2-22.7c0-8.3,4.1-14.5,12.6-14.5c7.2,0,11.9,5.4,11.9,13.2v7.9h-6.8v-7.3
		c0-4.6-1.7-7.3-5.3-7.3c-3.5,0-5.4,2.2-5.4,6.1c0,7.1,2.5,11.6,8.4,19.4c5.8,7.5,9.4,14.5,9.4,22.1C75.5,69.2,68.9,73.1,62.8,73.1z
		"/>
</g>
</svg>
