<?xml version="1.0" encoding="utf-8"?>
<!-- Generator: Adobe Illustrator 22.0.1, SVG Export Plug-In . SVG Version: 6.00 Build 0)  -->
<svg version="1.1" id="Layer_1" xmlns="http://www.w3.org/2000/svg" xmlns:xlink="http://www.w3.org/1999/xlink" x="0px" y="0px"
	 viewBox="0 0 1623 218" style="enable-background:new 0 0 1623 218;" xml:space="preserve">
<style type="text/css">
	.st0{fill:#FFFFFF;}
</style>
<path d="M1430.7,204.8c-7.2-63.7-14.3-127.4-21.5-191.3c6.8,0,13.3,0,20.4,0c4,44.1,8,88.2,11.9,132.4c0.4,0,0.7,0,1.1,0
	c1.7-12.5,3.5-25.1,5.2-37.6c4.1-30.4,8.2-60.7,12.2-91.1c0.4-2.7,1.2-4.2,4.3-4c4.3,0.3,8.6,0.1,13.3,0.1
	c5.2,44.7,10.4,88.9,15.6,133.2c0.3,0,0.6,0.1,1,0.1c4.5-44.3,9.1-88.5,13.7-133c6.4,0,12.5,0,19.3,0
	c-8.4,63.9-16.8,127.5-25.3,191.4c-6.3,0-12.5,0-19.3,0c-4.9-40.3-9.9-80.7-14.9-121.1c-0.3,0-0.5-0.1-0.8-0.1
	c-5.5,40.3-11,80.6-16.6,121.1C1443.7,204.8,1437.4,204.8,1430.7,204.8z"/>
<path d="M1318.6,204.7c-0.6,0.1-0.9,0.3-1.2,0.3c-13.4,0.6-13.5,0.6-17.6-12.1c-12-36.7-24-73.3-36-110c-0.3-0.9-0.7-1.7-1.8-2.5
	c0,41.4,0,82.7,0,124.3c-6.6,0-12.7,0-19.2,0c0-63.7,0-127.3,0-191.6c5.6,0,11-0.2,16.4,0.2c1.1,0.1,2.5,2.2,3,3.7
	c11.7,39,23.3,78.1,34.9,117.1c0.4,1.4,0.8,2.8,1.3,4.2c0.3,0,0.6,0,0.9,0c0-41.5,0-83.1,0-124.9c6.8,0,12.9,0,19.4,0
	C1318.6,77,1318.6,140.7,1318.6,204.7z"/>
<path d="M847.6,204.7c-0.6,0.1-0.9,0.3-1.2,0.3c-13.4,0.6-13.5,0.6-17.6-12c-12-36.7-24-73.3-36-110c-0.3-0.9-0.7-1.7-1.8-2.5
	c0,41.4,0,82.7,0,124.3c-6.6,0-12.7,0-19.2,0c0-63.7,0-127.3,0-191.6c5.5,0,11-0.2,16.4,0.2c1.1,0.1,2.6,2.2,3,3.7
	c11.7,39,23.3,78.1,34.9,117.1c0.4,1.5,1,3,2.4,4.4c0-41.6,0-83.1,0-125c6.6,0,12.7,0,19.2,0C847.6,77,847.6,140.7,847.6,204.7z"/>
<path d="M1000.9,111.6c13.7,6,16.4,17.3,16.3,30.3c-0.2,13.8-0.1,27.7,0,41.5c0,3.6-0.6,7.5,4.1,9.2c0.6,0.2,1,1.7,1,2.6
	c0.1,3.6,0,7.3,0,12.2c-5.9-0.8-11.4-0.9-16.5-2.4c-7.3-2.2-8.7-8.7-8.8-15.3c-0.2-16.3-0.1-32.7-0.2-49c0-2,0-4-0.1-6
	c-0.9-9.9-5.2-13.9-15.1-14c-4.3,0-8.7,0-13.7,0c0,28.1,0,56,0,84.1c-7.3,0-13.9,0-20.8,0c0-63.7,0-127.3,0-191.1
	c0.9-0.2,1.8-0.5,2.8-0.5c11.5,0,23-0.2,34.5,0c13,0.2,24.1,4.2,29.2,17.5c1.7,4.4,2.6,9.4,2.7,14.1c0.3,15.1,0.3,30.3-0.1,45.5
	C1015.9,100.1,1011.3,107.7,1000.9,111.6z M968.1,33c0,23.4,0,46.1,0,69.5c3.7,0,7.2,0,10.6,0c12.6,0,17.2-4.5,17.3-17
	c0.1-12.7,0.1-25.3,0-38c0-2.5-0.3-5-0.9-7.4c-1.2-4.3-4.2-6.9-8.6-7.1C980.4,32.8,974.4,33,968.1,33z"/>
<path d="M1106,75.5c-5.8,0-11.7,0-18.2,0c0-7.7,0-15.2,0-22.6c0-2.5,0.1-5-0.1-7.5c-0.9-9.8-7.1-15.5-16.3-15.2
	c-9.2,0.4-15.3,6.5-15.4,16.2c-0.2,35.8-0.1,71.7-0.1,107.5c0,6.5-0.1,13,0.1,19.5c0.4,9.9,6.3,15.6,15.7,15.7
	c9.6,0.1,16.2-5.9,16.4-15.7c0.3-15,0.1-29.9,0.1-45.4c-5.1,0-9.8,0-14.8,0c0-6.2,0-11.7,0-17.8c11.4,0,22.8,0,34.6,0
	c0,31.3,0,62.7,0,94.1c-9.6,4.2-10.5-4.6-13.6-10c-12.5,14.6-28.5,17.7-43.2,8.6c-8.9-5.6-13.4-14.2-15.1-24.2
	c-0.7-3.9-1-7.9-1-11.9c-0.1-38.3,0-76.7,0-115c0-12.1,2.7-23.3,11.9-31.7c11.3-10.4,24.6-12,38.6-7c12.8,4.6,18.9,15.2,20.2,28
	C1106.8,52.2,1106,63.6,1106,75.5z"/>
<path d="M1536,148.5c7,0,13.3,0,20.1,0c0,6.4-0.2,12.5,0.1,18.6c0.2,4,0.5,8,1.6,11.8c2.4,8,7.9,11.6,16.1,11.2
	c7.8-0.4,12.8-4.5,14.3-12.8c2.6-14.6-1.3-28.2-8.4-40.7c-4.7-8.2-10.4-15.8-15.9-23.5c-11.4-15.9-21.9-32.4-25.1-52.2
	c-2.4-15.3-0.7-30.1,11.1-41.7c14.4-14.1,47.8-13.2,56.3,14.9c0.8,2.5,1.6,5.2,1.7,7.8c0.2,9.5,0.1,19,0.1,28.8
	c-6.1,0-12.4,0-19.1,0c0-6.3,0.2-12.4-0.1-18.5c-0.2-4.5-0.6-9-1.8-13.3c-2-6.9-7.3-10.1-14.4-9.8c-7.2,0.3-12.2,3.9-13.6,11
	c-2.6,12.4-0.2,24.4,5.7,35.3c5.4,9.9,11.9,19.2,18.5,28.4c9.8,13.6,19,27.3,23.4,43.7c3.2,12,3.9,24,0.1,36
	c-4.9,15.6-19.5,25.5-35.5,24.4c-18.7-1.2-31.1-11.8-34.2-29.1c-0.5-2.9-0.8-6-0.9-8.9C1535.9,162.8,1536,155.8,1536,148.5z"/>
<path d="M714.6,114.9c0,24.1,0,47.2,0,70.8c13.4,0,26.4,0,39.8,0c0,6.6,0,12.7,0,19c-20.1,0-40,0-60.3,0c0-63.6,0-127.3,0-191.3
	c20,0,39.9,0,60.2,0c0,6,0,12.1,0,18.8c-13.1,0-26.1,0-39.6,0c0,21.5,0,42.4,0,64c9.3,0,18.7,0,28.4,0c0,6.5,0,12.3,0,18.7
	C733.8,114.9,724.4,114.9,714.6,114.9z"/>
<path d="M869.1,13.4c20.1,0,40,0,60.6,0c0,5.7,0.2,11.3-0.2,16.8c-0.1,0.8-2.6,2.1-4,2.1c-10,0.2-20,0.1-30,0.1c-1.8,0-3.6,0-5.8,0
	c0,21.3,0,42.2,0,63.8c9.4,0,18.8,0,28.4,0c0,6.5,0,12.3,0,18.7c-9.4,0-18.8,0-28.5,0c0,23.8,0,47,0,70.8c13.4,0,26.4,0,39.8,0
	c0,6.6,0,12.7,0,19c-20.1,0-40,0-60.3,0C869.1,141,869.1,77.4,869.1,13.4z"/>
<path d="M1360.6,114.9c0,23.9,0,47,0,70.6c13.3,0,26.3,0,39.8,0c0,6.6,0,12.6,0,19.1c-20,0-40,0-60.3,0c0-63.7,0-127.2,0-191.1
	c20.1,0,40.1,0,60.5,0c0,6.3,0,12.3,0,19c-13.4,0-26.5,0-39.8,0c0,21.5,0,42.4,0,63.9c8.2,0,16.1,0.2,24.1-0.1
	c3.8-0.1,5,1.1,4.8,4.8c-0.3,4.4-0.1,8.9-0.1,13.8C1379.7,114.9,1370.4,114.9,1360.6,114.9z"/>
<path d="M1198.4,13.1c-2.3,8.9-4.5,17.2-6.7,25.5c-7.7,28.9-15.6,57.8-23.2,86.8c-0.8,2.9-1.1,5.9-1.1,8.9c-0.1,23.3,0,46.6,0,70.3
	c-6.8,0-13.4,0-20.3,0c-0.1-1.8-0.2-3.5-0.2-5.3c0-20.3-0.3-40.7,0.1-61c0.2-13-4.4-24.8-7.4-37c-6.8-27.8-14.1-55.5-21.2-83.2
	c-0.4-1.4-0.6-2.9-1-4.7c6.8,0,13.3,0,20.5,0c6.6,28.8,13.3,57.7,19.9,86.6c0.3,0,0.7,0,1,0c2.8-12,5.5-24,8.3-36
	c3.6-15.6,7.3-31.1,10.7-46.7c0.7-3.2,1.8-4.5,5.2-4.3C1187.8,13.3,1192.8,13.1,1198.4,13.1z"/>
<path class="st0" d="M968.1,33c6.4,0,12.3-0.2,18.3,0.1c4.5,0.2,7.5,2.8,8.6,7.1c0.6,2.4,0.9,4.9,0.9,7.4c0.1,12.7,0.1,25.3,0,38
	c-0.1,12.5-4.7,17-17.3,17c-3.4,0-6.9,0-10.6,0C968.1,79.1,968.1,56.4,968.1,33z"/>
<path d="M70.3,13.9c5.8,0,11.1,0,17,0c5.2,44.3,10.4,88.6,15.6,132.8c0.3,0,0.7,0.1,1,0.1c4.5-44.1,9.1-88.3,13.6-132.7
	c6.3,0,12.4,0,19.3,0c-8.4,63.7-16.8,127.3-25.2,191.2c-6.4,0-12.6,0-19.4,0c-4.9-40.2-9.9-80.5-14.8-120.8c-0.3,0-0.5-0.1-0.8-0.1
	c-5.5,40.2-11,80.4-16.6,120.9c-6.5,0-12.8,0-19.6,0C33.2,141.8,26.1,78.1,18.9,14.1c6.9,0,13.4,0,20.4,0c4,44.2,8,88.3,11.9,132.4
	c0.4,0,0.7,0,1.1-0.1C58.3,102.3,64.3,58.2,70.3,13.9z"/>
<path d="M295.8,70.5c-7.7,0-13.6,0-20.4,0c0-5.8,0.2-11.6-0.1-17.3c-0.2-4.6-0.4-9.4-1.6-13.8c-1.9-7.4-7-10.9-14.3-10.7
	c-7.6,0.2-12.7,4-14.2,11.5c-2.3,12.2,0,24.1,5.9,34.8c5.6,10.1,12.3,19.7,19.1,29.2c9.5,13.3,18.5,26.9,22.8,43
	c3.1,11.6,3.8,23.4,0.3,35c-4.7,16-19.1,26.1-35.4,25.3c-18.4-0.9-30.9-11.1-34.4-28.3c-0.6-3.1-1-6.3-1-9.4c-0.1-7.1,0-14.3,0-21.7
	c6.7,0,13,0,20.1,0c0,5.9-0.2,11.8,0.1,17.7c0.2,4.4,0.6,9,1.8,13.3c2.3,7.7,7.9,11.1,16,10.7c7.6-0.4,12.6-4.4,14.1-12.4
	c2.8-14.8-1.2-28.5-8.4-41.2c-4.6-8.1-10.2-15.6-15.7-23.1c-11.4-15.9-22-32.3-25.2-52.1c-2.5-15.3-0.9-30.1,10.7-41.8
	C250.2,4.8,284.8,5.4,292.3,34C295.4,45.4,294.8,57.9,295.8,70.5z"/>
<path d="M150.7,14c20.1,0,40,0,60.3,0c0,6.2,0,12.2,0,18.9c-13.2,0-26.3,0-39.7,0c0,21.5,0,42.4,0,64c9.4,0,18.8,0,28.4,0
	c0,6.5,0,12.3,0,18.7c-9.4,0-18.8,0-28.5,0c0,23.8,0,47,0,70.8c13.4,0,26.5,0,39.8,0c0,6.6,0,12.7,0,19c-20.2,0-40.1,0-60.4,0
	C150.7,141.6,150.7,77.9,150.7,14z"/>
<path d="M352.3,205.5c-7.3,0-13.6,0-20.4,0c0-57.1,0-114.2,0-171.8c-8.7,0-17,0-25.5,0c0-6.8,0-13.1,0-19.6c23.4,0,46.7,0,70.1,0
	c0,6.5,0,12.7,0,19.4c-8.1,0-15.8,0-24.2,0C352.3,90.9,352.3,148,352.3,205.5z"/>
<path d="M521.1,112.1c13.7,6,16.4,17.3,16.3,30.3c-0.2,13.8-0.1,27.7,0,41.5c0,3.6-0.6,7.5,4.1,9.2c0.6,0.2,1,1.7,1,2.6
	c0.1,3.6,0,7.3,0,12.2c-5.9-0.8-11.4-0.9-16.5-2.4c-7.3-2.2-8.7-8.7-8.8-15.3c-0.2-16.3-0.1-32.7-0.2-49c0-2,0-4-0.1-6
	c-0.9-9.9-5.2-13.9-15.1-14c-4.3,0-8.7,0-13.7,0c0,28.1,0,56,0,84.1c-7.3,0-13.9,0-20.8,0c0-63.7,0-127.3,0-191.1
	c0.9-0.2,1.8-0.5,2.8-0.5c11.5,0,23-0.2,34.5,0c13,0.2,24.1,4.2,29.2,17.5c1.7,4.4,2.6,9.4,2.7,14.1c0.3,15.1,0.3,30.3-0.1,45.5
	C536.1,100.6,531.5,108.2,521.1,112.1z M488.3,33.5c0,23.4,0,46.1,0,69.5c3.7,0,7.2,0,10.6,0c12.6,0,17.2-4.5,17.3-17
	c0.1-12.7,0.1-25.3,0-38c0-2.5-0.3-5-0.9-7.4c-1.2-4.3-4.2-6.9-8.6-7.1C500.6,33.3,494.6,33.5,488.3,33.5z"/>
<path d="M389.3,13.9c20.1,0,40,0,60.6,0c0,5.7,0.2,11.3-0.2,16.8c-0.1,0.8-2.6,2.1-4,2.1c-10,0.2-20,0.1-30,0.1c-1.8,0-3.6,0-5.8,0
	c0,21.3,0,42.2,0,63.8c9.4,0,18.8,0,28.4,0c0,6.5,0,12.3,0,18.7c-9.4,0-18.8,0-28.5,0c0,23.8,0,47,0,70.8c13.4,0,26.4,0,39.8,0
	c0,6.6,0,12.7,0,19c-20.1,0-40,0-60.3,0C389.3,141.5,389.3,77.9,389.3,13.9z"/>
<path d="M635.8,205.2c-0.6,0.1-0.9,0.3-1.2,0.3c-13.4,0.6-13.5,0.6-17.6-12c-12-36.7-24-73.3-36-110c-0.3-0.9-0.7-1.7-1.8-2.5
	c0,41.4,0,82.7,0,124.3c-6.6,0-12.7,0-19.2,0c0-63.7,0-127.3,0-191.6c5.5,0,11-0.2,16.4,0.2c1.1,0.1,2.6,2.2,3,3.7
	c11.7,39,23.3,78.1,34.9,117.1c0.4,1.5,1,3,2.4,4.4c0-41.6,0-83.1,0-125c6.6,0,12.7,0,19.2,0C635.8,77.5,635.8,141.2,635.8,205.2z"
	/>
</svg>
